# xmcd CD database file
#
# Track frame offsets:
#	150
#	45966
#	66274
#	107493
#	136881
#	160599
#	186658
#	226221
#	251358
#	289324
#	318584
#
# Disc length: 4675 seconds
#
# Revision: 0
# Processed by: cddbd v1.5.1PL2 Copyright (c) Steve Scherf et al.
# Submitted via: CDex 1.51
#
DISCID=9512410b
DTITLE=Matthias Dymke, Daniel Basso, Michael Gerards - Snow Soul
DYEAR=1999
DGENRE=Jazz
TTITLE0=God bless the child
TTITLE1=Für Charly
TTITLE2=Snow soul
TTITLE3=My foolish heart
TTITLE4=Just the two of us
TTITLE5=Session Tune II
TTITLE6=Bays
TTITLE7=Besame mucho
TTITLE8=Moon River
TTITLE9=I can wait
TTITLE10=When I fall in love
EXTD=YEAR: 1999
EXTT0=
EXTT1=
EXTT2=
EXTT3=
EXTT4=
EXTT5=
EXTT6=
EXTT7=
EXTT8=
EXTT9=
EXTT10=
PLAYORDER=
